HIERARCHY
ROOT Hips
{
  OFFSET 13.6774 106.653 -34.4427
  CHANNELS 6 Xposition Yposition Zposition Zrotation Xrotation Yrotation
  JOINT ToSpine
  {
    OFFSET -2.69724 7.43032 -0.144315
    CHANNELS 3 Zrotation Xrotation Yrotation
    JOINT Spine
    {
      OFFSET -0.0310711 10.7595 1.96963
      CHANNELS 3 Zrotation Xrotation Yrotation
      JOINT Spine1
      {
        OFFSET 19.9056 3.91189 0.764692
        CHANNELS 3 Zrotation Xrotation Yrotation
        JOINT Neck
        {
          OFFSET 25.9749 7.03908 -0.130764
          CHANNELS 3 Zrotation Xrotation Yrotation
          JOINT Head
          {
            OFFSET 9.52751 0.295786 -0.907742
            CHANNELS 3 Zrotation Xrotation Yrotation
            End Site
            {
              OFFSET 16.4037 0.713936 2.7358
            }
          }
        }
        JOINT LeftShoulder
        {
          OFFSET 17.7449 4.33886 11.7777
          CHANNELS 3 Zrotation Xrotation Yrotation
          JOINT LeftArm
          {
            OFFSET 0.911315 1.27913 9.80584
            CHANNELS 3 Zrotation Xrotation Yrotation
            JOINT LeftForeArm
            {
              OFFSET 28.6126 1.18197 -3.53199
              CHANNELS 3 Zrotation Xrotation Yrotation
              JOINT LeftHand
              {
                OFFSET 27.5088 0.0218783 0.327423
                CHANNELS 3 Zrotation Xrotation Yrotation
                End Site
                {
                  OFFSET 18.6038 -0.000155887 0.382096
                }
              }
            }
          }
        }
        JOINT RightShoulder
        {
          OFFSET 17.1009 2.89543 -12.2328
          CHANNELS 3 Zrotation Xrotation Yrotation
          JOINT RightArm
          {
            OFFSET 1.4228 0.178766 -10.211
            CHANNELS 3 Zrotation Xrotation Yrotation
            JOINT RightForeArm
            {
              OFFSET 28.733 1.87905 2.64907
              CHANNELS 3 Zrotation Xrotation Yrotation
              JOINT RightHand
              {
                OFFSET 27.4588 0.290562 -0.101845
                CHANNELS 3 Zrotation Xrotation Yrotation
                End Site
                {
                  OFFSET 17.8396 -0.255518 -0.000602873
                }
              }
            }
          }
        }
      }
    }
  }
  JOINT LeftUpLeg
  {
    OFFSET -5.61296 -2.22332 -10.2353
    CHANNELS 3 Zrotation Xrotation Yrotation
    JOINT LeftLeg
    {
      OFFSET 2.56703 -44.7417 -7.93097
      CHANNELS 3 Zrotation Xrotation Yrotation
      JOINT LeftFoot
      {
        OFFSET 3.16933 -46.5642 -3.96578
        CHANNELS 3 Zrotation Xrotation Yrotation
        JOINT LeftToeBase
        {
          OFFSET 0.346054 -6.02161 12.8035
          CHANNELS 3 Zrotation Xrotation Yrotation
          End Site
          {
            OFFSET 0.134235 -1.35082 5.13018
          }
        }
      }
    }
  }
  JOINT RightUpLeg
  {
    OFFSET -5.7928 -1.72406 10.6446
    CHANNELS 3 Zrotation Xrotation Yrotation
    JOINT RightLeg
    {
      OFFSET -2.57161 -44.7178 -7.85259
      CHANNELS 3 Zrotation Xrotation Yrotation
      JOINT RightFoot
      {
        OFFSET -3.10148 -46.5936 -4.03391
        CHANNELS 3 Zrotation Xrotation Yrotation
        JOINT RightToeBase
        {
          OFFSET -0.0828122 -6.13587 12.8035
          CHANNELS 3 Zrotation Xrotation Yrotation
          End Site
          {
            OFFSET -0.131328 -1.35082 5.13018
          }
        }
      }
    }
  }
}
MOTION
Frames: 17
Frame Time: 0.03333333333333333
0.0000 93.1000 0.0000 63.0964 49.5845 25.3693 -70.6666 -0.1406 88.9859 136.2551 63.0094 -44.5733 10.7966 19.6863 -0.7521 -160.1196 2.5557 -179.3877 -142.3819 34.1429 158.6004 2.0784 -4.4379 -31.2530 -78.8249 37.3650 -111.6841 2.4540 7.6730 -19.4973 14.9793 -0.6014 -5.8256 -0.4660 0.2323 26.8474 -78.2814 -53.5180 90.3841 15.3230 -15.1025 42.2433 8.1166 -1.5232 0.2949 -24.6517 -0.3948 79.6592 -163.2624 73.1973 156.2313 5.7191 6.8133 -0.7059 -6.5368 -23.0306 15.2368 -28.4231 4.2747 75.3624 6.1225 65.2136 1.4246 -7.0359 -7.2562 0.9050 9.2095 -14.8913 -21.0735 
0.0000 93.1000 0.0000 61.7265 50.7088 26.7253 -70.7444 0.0248 89.0351 136.1977 61.2258 -47.6259 9.1450 18.8638 -0.7395 -158.9874 -0.8805 -177.9356 -142.1378 30.5057 157.6681 1.8827 -4.5518 -31.0578 -81.2351 34.8623 -114.7203 5.8618 7.1504 -29.0363 15.4080 -1.2898 -6.0324 -0.1193 0.2240 27.4172 -72.3334 -55.3814 91.5296 12.4466 -11.9586 39.3446 6.6900 -0.1098 1.0930 -31.0207 -1.0142 78.5240 -159.0261 76.7663 151.5528 6.0568 7.1186 -0.8956 -7.0849 -24.1913 13.5653 -23.1396 2.4907 77.0526 4.3691 57.4131 1.2974 -6.7729 -5.0593 0.5833 3.0361 7.8936 -16.4667 
0.0000 93.1000 0.0000 58.6144 49.9632 27.6620 -70.6920 0.3594 88.9278 136.1461 60.6538 -48.9871 7.4817 19.1359 -2.7253 -161.1638 -5.0211 -175.4807 -142.1418 26.2820 156.4253 1.8666 -4.1986 -30.5307 -84.9987 32.8572 -114.3055 10.6031 9.9086 -42.2801 16.1799 -2.1034 -7.7006 0.5006 0.7059 27.2377 -67.6650 -58.0725 93.6684 7.3937 -7.6951 37.2960 5.1718 0.9693 2.7157 -34.6899 -2.1509 79.5175 -110.8166 84.2958 100.8455 4.9850 7.4942 -1.1123 -7.2725 -24.8639 11.2795 -22.6113 0.5677 78.5967 1.8224 40.7942 4.3547 -4.9700 -1.7272 -0.1409 -11.8329 35.3407 2.6588 
0.0000 93.1000 0.0000 56.7471 47.0642 26.7909 -70.7525 -0.0291 89.1389 136.5788 61.4526 -50.7763 5.8250 19.9391 -3.0547 -161.9733 -7.6300 -171.0749 -143.2070 22.6259 156.5589 1.8112 -4.1362 -29.7289 -86.4494 31.2362 -115.4574 16.1123 10.2720 -55.3893 17.6428 -2.3013 -9.9492 -0.5434 1.7200 26.0797 -65.9901 -59.9860 94.4143 6.8966 -6.5802 36.9194 5.0974 0.4026 2.3522 -39.0453 -4.0827 82.1590 -19.5173 78.3203 6.2365 3.0473 5.9089 -0.5488 -6.8208 -23.3699 11.1671 -20.7667 -2.6158 78.3139 1.7778 36.0214 7.2534 -3.9251 2.8610 -0.2343 -9.0229 24.8417 -0.2775 
0.0000 93.1000 0.0000 57.6265 44.2442 22.4001 -70.4850 -0.1633 88.9875 135.1895 62.1030 -51.8610 5.8128 22.0200 -5.3632 -161.1018 -9.9724 -168.0746 -143.8913 19.9688 157.2623 1.9271 -3.7561 -30.3419 -86.1806 31.3045 -114.3632 19.5469 9.2667 -63.7403 21.5061 -2.1898 -9.6394 -0.7835 2.9897 24.2460 -61.4251 -59.5731 100.5295 5.9202 -4.4470 35.1018 5.9918 0.1989 2.1476 -41.4398 -6.8454 84.4853 -11.3836 70.5028 -5.7373 3.0372 2.7358 -0.8131 -5.7108 -19.0427 9.8880 -19.2905 -3.6963 80.2003 2.2791 48.4940 3.3226 -4.4028 3.2459 -0.3557 -0.5215 13.7116 -10.5341 
0.0000 93.1000 0.0000 60.8461 43.0287 18.5442 -70.5884 -0.0508 88.8919 136.1501 63.0828 -54.0986 5.9316 23.8409 -6.5586 -158.0239 -12.0581 -165.2262 -144.3284 16.9742 156.3074 1.7671 -3.5288 -31.3186 -84.4214 33.6497 -111.2713 17.5655 8.9097 -59.9138 21.8479 -1.8944 -8.6167 -0.9086 3.5310 22.3510 -58.6307 -58.2230 107.3624 3.2318 -1.9711 33.4475 6.5332 -0.2047 1.6415 -43.1774 -8.8842 86.4394 -10.0889 66.9885 -9.7030 3.7023 2.7413 -0.9160 -5.9858 -22.0529 8.0124 -18.1167 -4.7854 84.2133 7.8603 71.0217 -4.7334 -5.8091 -1.2335 -0.0276 3.9262 5.2523 -14.4569 
0.0000 93.1000 0.0000 64.5372 41.4198 15.7776 -70.4974 0.1104 88.9770 139.3050 64.4273 -57.6301 6.3024 24.8314 -7.4451 -156.0234 -14.2959 -165.4918 -145.6106 14.4254 154.5575 1.9443 -3.1956 -32.1974 -83.2830 36.9846 -108.1527 13.9172 11.4098 -47.9253 20.0980 -1.4535 -7.7074 -0.6731 3.2055 20.9065 -63.1065 -59.1011 104.3596 2.7689 -0.9787 35.0612 7.2491 -0.1956 1.2084 -40.5908 -9.1752 87.7079 -9.1955 66.2145 -8.1323 6.5663 1.4540 -1.5002 -8.7264 -32.7950 7.2770 -21.5080 -4.9914 86.0636 120.9181 84.9670 -116.1194 -7.0807 -3.2118 0.4631 4.4351 1.0587 -13.0072 
0.0000 93.1000 0.0000 63.5518 41.0530 15.4032 -70.7085 -0.0619 88.9370 137.3177 66.0817 -55.1790 7.2810 25.0397 -7.9078 -153.9541 -14.7874 -164.2820 -144.2540 13.0482 154.0875 2.1275 -2.0449 -34.2087 -79.8129 37.9796 -107.1316 9.7608 12.9083 -31.9152 17.5820 -1.4417 -6.7939 -0.7809 3.1572 19.4559 -71.5630 -60.0297 97.4145 3.8402 -1.8047 39.3740 8.3446 -0.3322 1.2989 -32.4251 -10.9828 86.1622 -9.1858 68.1194 -3.1548 8.2003 6.8400 -1.7176 -10.9244 -42.7224 7.9870 -26.3226 -4.7067 89.4175 162.0183 74.3840 -153.8156 -7.5851 -5.3471 0.8582 4.9950 -2.0111 -13.8995 
0.0000 93.1000 0.0000 64.5846 41.1946 15.6310 -70.9319 0.0834 89.0266 140.2496 67.0826 -54.4141 8.8674 25.9877 -9.1136 -153.0420 -13.9130 -163.7216 -142.8132 14.0903 153.9073 2.3173 -2.2292 -37.1508 -73.6089 36.9301 -105.9423 3.8938 11.7488 -19.9130 17.2017 -1.2825 -4.8689 -0.4583 2.9169 19.1253 -71.4269 -59.1569 98.4648 4.9242 -2.6838 40.6965 7.6297 0.1748 2.8748 -28.9413 -13.1307 84.1607 -6.5011 63.3325 -1.3394 9.0339 10.3436 -1.8599 -10.1663 -41.9889 7.5060 -38.0137 -4.0160 90.0323 160.0947 74.0728 -145.9494 -6.7412 -4.0454 0.5996 6.0374 -8.0732 -13.7134 
0.0000 93.1000 0.0000 65.1475 41.2490 15.0843 -71.0283 0.0429 89.0369 141.3521 67.2581 -56.1201 8.9612 26.9711 -9.7830 -152.9216 -13.1579 -164.0788 -144.0958 14.9782 153.9333 2.7683 -1.9854 -38.0117 -88.7790 37.0491 -90.9859 -2.0304 21.3639 -10.9400 15.5814 -0.7150 -4.0304 -0.4257 2.6425 19.1440 -64.3262 -56.6420 107.1349 4.3029 -2.8570 38.9814 6.8842 -0.2016 3.8910 -26.0463 -12.8559 82.6179 -5.0654 54.3198 -3.7171 6.5451 9.7371 -1.5833 -7.0708 -27.6266 9.6669 -46.0159 -0.7834 91.0002 133.8928 82.9331 -117.5251 -7.3431 -4.1388 1.2187 8.1240 -12.6218 -13.9382 
0.0000 93.1000 0.0000 59.7696 43.1336 17.8984 -70.7629 -0.2777 88.9935 140.3479 67.1540 -54.8113 7.1349 27.2951 -9.7348 -154.8464 -12.1751 -164.4197 -144.4237 16.5804 153.9842 2.4125 -2.1273 -36.6626 -96.0047 37.8450 -82.9934 -5.0086 24.0477 -7.2074 13.3810 -0.5991 -3.7668 -0.4582 2.1619 18.9394 -62.1112 -55.0260 109.4536 4.0612 -2.5245 40.9083 6.1213 -0.4994 4.7634 -24.1355 -11.8503 81.0090 -3.4575 38.8961 -10.1223 2.2008 8.9373 -0.4407 -4.4745 -1.5673 15.6380 -49.3153 3.4306 88.8762 23.8009 80.0832 -9.0840 -6.7115 -5.8726 0.9943 6.4312 -9.0899 -14.7091 
0.0000 93.1000 0.0000 54.9144 46.2221 23.0452 -70.6584 -0.0505 88.9428 138.3508 67.2785 -52.7551 7.9967 25.9747 -9.6215 -155.9041 -10.8241 -164.5978 -144.4060 18.1807 153.5630 1.9238 -2.4015 -36.0671 -96.3534 39.0489 -81.7728 -3.9551 23.3432 -8.2661 12.8168 -0.7003 -3.7907 -0.0931 1.1274 19.3004 -59.4388 -54.3249 110.5381 4.0512 -2.7676 42.7904 5.8521 0.3153 5.8228 -19.8750 -11.3560 82.3688 -3.1909 36.2297 -13.7115 -1.4881 9.1610 0.3823 -5.4633 -3.7305 20.0541 -49.8869 6.2772 85.3191 7.2400 69.2553 1.4204 -6.7175 -8.9130 0.8321 4.8506 1.0289 -12.1231 
0.0000 93.1000 0.0000 52.7904 49.3695 28.0834 -70.6953 -0.1402 88.8305 138.3579 66.9029 -49.7305 8.2534 25.0021 -8.0589 -154.8809 -9.0090 -166.8440 -143.4406 19.2583 152.2598 2.1415 -3.2278 -36.2327 -93.0926 37.8077 -83.7602 -3.0100 21.8742 -10.2489 12.7567 -0.4076 -4.5057 -0.0652 1.0962 20.1000 -60.4489 -55.3467 108.3216 6.0469 -3.8039 43.9580 5.4120 -0.1949 5.5469 -16.3384 -11.1574 82.3354 -5.7321 51.1434 -12.5412 -0.9013 8.0594 0.0261 -5.8931 -11.4343 19.1545 -50.5538 9.8434 81.9271 4.7117 62.1644 4.2075 -5.7887 -6.1133 0.4348 2.7970 3.9133 -12.6422 
0.0000 93.1000 0.0000 54.7699 53.4423 27.9724 -70.8383 0.0517 89.1522 141.2901 65.2361 -50.9775 7.8210 24.0758 -6.4345 -155.0294 -6.8391 -169.3314 -142.3639 21.2845 152.1881 2.0732 -3.0588 -34.8090 -90.2425 38.1465 -88.8046 -2.7501 22.0131 -11.3340 12.8751 -0.2322 -5.2682 0.1474 1.1197 20.3261 -62.1412 -56.3950 104.3124 6.0472 -4.1824 41.7825 5.9797 -0.3736 4.6350 -16.1245 -11.8950 81.3148 -12.5574 72.0953 -3.3883 0.6299 5.6425 -0.2297 -6.7126 -20.3490 18.1952 -51.1049 10.2842 79.1699 4.6504 59.8855 5.7909 -7.4155 -6.7199 0.8422 3.5226 -5.8036 -8.3166 
0.0000 93.1000 0.0000 58.6990 55.2436 24.9082 -70.7962 -0.2371 89.0203 144.3878 64.6727 -53.5625 8.1229 24.1415 -5.2585 -153.9996 -3.9512 -170.0442 -141.6900 24.4450 153.3184 2.0633 -3.0847 -35.4251 -82.3454 37.8323 -95.8462 -0.1369 16.0172 -15.2135 11.6622 -0.6808 -5.0896 -0.2085 0.8671 20.9281 -64.3898 -58.3428 101.3307 6.0656 -4.6844 36.8314 6.3190 -0.1605 3.6824 -18.6971 -8.9056 82.2920 -100.6305 85.1699 87.4017 3.4063 3.8881 -0.9637 -6.7370 -23.3874 18.0973 -45.8984 8.5466 78.0468 6.7218 65.0940 7.6119 -7.9390 -17.1353 1.1531 6.5733 -0.3322 -17.4811 
0.0000 93.1000 0.0000 53.7760 53.4379 33.0226 -70.5122 -0.1081 89.1294 141.2835 65.6018 -46.7785 9.4684 23.9635 -4.1825 -155.0192 -0.9138 -171.3790 -140.4025 28.0208 154.7861 1.7428 -2.4339 -35.0502 -74.2531 33.8406 -105.0146 1.8049 8.1702 -19.3659 13.1481 -0.7036 -4.1948 0.0406 1.0980 21.9631 -63.3641 -58.4665 103.2217 4.8294 -4.6601 27.9838 6.1109 0.2042 3.3236 -18.4033 -4.1235 77.1301 -160.5488 76.5617 151.5426 4.3529 5.1500 -1.0693 -6.9938 -25.3026 17.9668 -33.5907 11.7114 77.1288 7.8473 66.7996 7.0731 -7.7745 -11.2485 1.0940 10.3087 -14.8983 -23.7882 
0.0000 93.1000 0.0000 52.7639 56.3476 36.1558 -70.6238 -0.0465 89.4324 138.4676 64.2233 -44.7860 10.3632 22.1505 -2.3255 -156.0568 2.0376 -173.1370 -139.3558 32.6963 156.8042 1.8530 -3.0387 -32.9354 -77.2909 33.9766 -107.0833 5.0043 5.7683 -24.3973 13.8177 -0.7413 -4.3265 0.1739 0.8806 23.2254 -63.5381 -58.4162 105.3452 3.1315 -6.1672 21.0494 6.0909 -0.0578 2.4529 -24.8277 -2.2401 73.2243 -162.5748 74.4063 154.4370 5.7066 7.6567 -0.8587 -6.9121 -24.2694 16.5521 -28.2941 11.0483 77.2050 6.1752 62.9318 4.0959 -7.0448 -8.9879 0.9346 9.1851 -10.9638 -22.8572 
